<?xml version="1.0" encoding="UTF-8"?>
<svg id="Layer_1" data-name="Layer 1" xmlns="http://www.w3.org/2000/svg" width="111.44mm" height="107.78mm" viewBox="0 0 315.9 305.52">
  <ellipse cx="157.95" cy="152.76" rx="157.95" ry="152.76" style="fill: #069848;"/>
  <polygon points="144.62 70.23 147 71.8 148.72 73.78 149.67 75.46 150.35 77.18 150.82 79.14 151.33 81.12 151.88 83.8 152.08 86.11 152.43 88.98 152.6 91.78 152.44 93.92 152.19 97.23 152 99.86 151.78 102.76 151.62 104.97 150.56 107.88 149.85 109.91 149.17 111.53 148.19 113.33 147.44 114.67 145.99 116.36 144.9 117.33 143.59 118.69 141.46 119.57 139.08 120.23 136.28 120.02 133.81 119.28 130.46 117.85 127.45 115.48 124.75 112.85 122.86 110.55 120.8 107.97 119.67 105.59 118.82 103.1 118.51 100.99 118.13 98.53 118.28 96.53 118.51 93.5 119.25 91.04 120.07 88.88 121.53 85.58 123.44 82.46 125.51 79.77 127.72 77.78 129.86 75.36 131.84 73.91 133.63 72.52 135.6 71.2 137.2 70.35 139.35 69.84 141.45 69.85 143.03 69.93 144.62 70.23" style="fill: #fff;"/>
  <polygon points="186.89 69.84 189.12 70.99 191.03 72.25 192.59 73.51 194.05 75.08 196.29 77.86 197.96 80.13 199.1 81.82 200.19 83.69 201.28 85.91 201.9 87.87 202.47 89.78 202.85 91.69 203.23 93.69 203.39 94.76 203.55 96.32 203.55 97.56 203.55 98.86 203.55 100.71 203.55 101.86 203.55 102.96 203.55 104.14 203.55 105.05 203.09 106.86 202.33 109.35 201.58 110.92 200.35 112.78 199.23 114.33 196.97 116.5 195.22 117.87 193.32 118.92 191.59 119.61 189.6 119.98 187.08 119.98 184.76 119.98 182.77 119.36 180.45 117.68 179.12 116.25 177.32 113.33 176.26 110.79 175.27 108.32 174.68 105.97 174.02 103.25 173.55 100.9 173.35 98.17 173.29 95.39 173.29 93.04 173.35 90.38 173.62 87.1 173.88 85.06 174.29 82.71 174.88 80.18 175.64 77.69 176.53 75.52 177.41 73.85 178.3 72.47 179.27 71.4 180.16 70.73 181.26 70.1 182.88 69.6 184.37 69.5 185.89 69.63 186.89 69.84" style="fill: #fff;"/>
  <polygon points="65.42 140.31 70.55 137.11 74.31 134.96 77.68 132.54 79.78 130.61 81.89 128.82 83.91 128.02 86.22 127.92 87.73 128.1 88.89 128.7 89.84 129.43 90.74 130.4 91.64 131.36 92.11 132.23 92.78 133.8 92.83 134.93 92.88 136.05 92.92 137.06 92.71 138.31 92.22 139.46 91.67 140.43 90.75 141.54 89.37 143.14 87.85 144.15 86.24 145.47 86 146.07 86.21 147.31 86.92 148.7 87.69 150.21 89.95 154.36 91.93 157.89 95.15 163.06 98.04 167.79 102.78 174.66 105.86 179.64 108.82 183.55 110.88 186.42 112.81 188.56 114.91 191.32 116.94 193.57 120.01 196.95 122.67 199.63 125.46 202.51 127.9 204.83 131.36 207.54 135.19 210.42 140.28 213.58 145.09 216.18 149.87 218.04 154.54 219.34 157.99 220.03 163.3 220.36 168.24 220.14 173.48 219.91 176.92 219.76 178.47 219.47 180.64 218.83 183.25 218.22 185.4 217.34 189.21 215.4 192.4 213.78 195.22 211.58 198.02 209.19 200.9 206.65 203.13 204.39 205.77 201.27 207.62 198.67 209.34 196.13 211.44 192.94 213.2 190.25 215.85 185.55 216.93 183.58 218.38 180.91 219.74 178.34 221.28 174.68 222.65 171.27 223.77 168.41 225.03 165.4 226.11 162.49 227.2 159.93 228.14 157.97 228.75 156.61 229.49 155.06 230.02 153.8 230.47 152.99 230.53 152.25 230.4 152.02 229.46 151.75 228.25 151.34 227.17 150.87 225.84 150.21 224.39 149.19 223.96 148.75 223.23 147.85 222.85 147.25 222.27 146.29 221.91 144.99 221.8 143.91 221.76 142.97 221.69 141.73 221.74 140.74 222.02 139.82 222.44 138.84 222.89 138.07 223.34 137.43 224.11 136.36 224.96 135.51 225.95 134.65 226.85 134.27 227.73 134.08 229.05 134.03 230.49 134.11 231.77 134.4 232.78 134.79 234.58 135.54 236.35 136.39 238.04 137.24 240.12 138.17 242.41 139.3 244.47 140.28 246.22 141.31 247.97 142.42 249.81 143.58 250.98 144.64 251.77 145.84 252.19 146.63 252.51 147.76 252.64 148.44 252.77 149.28 252.8 150 252.8 150.65 252.62 151.79 252.25 152.88 251.88 153.84 251.45 154.77 250.97 155.44 250.44 156.12 249.76 156.7 248.79 157.43 247.95 157.82 246.76 158.33 246 158.62 244.99 158.66 243.52 158.55 242.28 158.14 241.12 157.41 240.19 156.7 239.65 156.36 239.15 156.04 238.8 156.15 238.59 156.81 238.28 157.97 238.07 159.1 237.89 160.26 237.67 161.4 237.41 162.9 237.07 164.51 236.74 166 236.38 167.43 235.98 169.01 235.6 170.38 235.2 172 234.63 174.07 234.04 176.41 233.02 179.69 232.2 181.8 231.42 183.57 230.47 186.02 229.6 188.25 228.86 190.21 227.93 192.44 226.85 194.93 225.57 197.21 223.85 200.37 222.16 203.49 220.26 206.54 217.53 210.29 215.09 213.27 212.69 215.75 210.84 217.56 208.13 220.05 205.32 222.44 202.14 224.56 199.91 225.84 195.84 228.1 192.67 229.47 188.88 231.07 185.48 232.31 181.84 233.43 177.89 234.61 173.9 235.29 168.65 235.93 164.09 236.03 158.61 235.87 153.58 235.49 148.08 234.63 142.81 233.06 138 231.36 133.26 229.36 129.06 227.24 124.57 224.53 120.71 221.89 116.93 218.95 112.57 215.03 108.94 211.38 105.5 207.72 101.93 203.36 99.6 200.05 97.29 196.34 94.94 192.63 92.87 189.11 90.99 185.78 89.21 182.65 87.58 178.71 85.53 173.58 84.19 170.13 82.92 166.07 81.66 162.31 80.48 158.35 79.78 154.97 79.52 153.35 79.2 152.28 78.86 151.81 78.35 151.88 77.47 152.57 76.56 153.26 75.29 154.05 74.06 154.8 72.78 155.3 71.57 155.57 70.67 155.63 69.3 155.55 67.92 155.16 66.4 154.18 65.31 153.05 64.35 151.77 63.62 150.35 63.37 149.18 63.18 147.87 63.11 146.15 63.29 144.64 63.56 143.35 63.89 142.34 64.38 141.41 64.85 140.8 65.42 140.31" style="fill: #fff;"/>
</svg>