<?xml version="1.0" encoding="UTF-8"?>
<svg id="Layer_1" data-name="Layer 1" xmlns="http://www.w3.org/2000/svg" viewBox="0 0 25.45 23.77">
  <ellipse cx="12.72" cy="11.88" rx="12.72" ry="11.88" style="fill: #069848;"/>
  <polygon points="11.65 5.46 11.84 5.59 11.98 5.74 12.06 5.87 12.11 6 12.15 6.16 12.19 6.31 12.24 6.52 12.25 6.7 12.28 6.92 12.29 7.14 12.28 7.31 12.26 7.56 12.25 7.77 12.23 7.99 12.21 8.17 12.13 8.39 12.07 8.55 12.02 8.68 11.94 8.82 11.88 8.92 11.76 9.05 11.67 9.13 11.57 9.23 11.4 9.3 11.2 9.35 10.98 9.34 10.78 9.28 10.51 9.17 10.27 8.98 10.05 8.78 9.9 8.6 9.73 8.4 9.64 8.21 9.57 8.02 9.55 7.86 9.52 7.67 9.53 7.51 9.55 7.27 9.61 7.08 9.67 6.91 9.79 6.66 9.94 6.42 10.11 6.21 10.29 6.05 10.46 5.86 10.62 5.75 10.77 5.64 10.92 5.54 11.05 5.47 11.23 5.43 11.4 5.43 11.52 5.44 11.65 5.46" style="fill: #fff;"/>
  <polygon points="15.06 5.43 15.24 5.52 15.39 5.62 15.52 5.72 15.63 5.84 15.81 6.06 15.95 6.23 16.04 6.37 16.13 6.51 16.22 6.68 16.27 6.84 16.31 6.98 16.34 7.13 16.37 7.29 16.39 7.37 16.4 7.49 16.4 7.59 16.4 7.69 16.4 7.83 16.4 7.92 16.4 8.01 16.4 8.1 16.4 8.17 16.36 8.31 16.3 8.51 16.24 8.63 16.14 8.77 16.05 8.89 15.87 9.06 15.73 9.17 15.57 9.25 15.43 9.31 15.27 9.33 15.07 9.33 14.88 9.33 14.72 9.29 14.54 9.16 14.43 9.04 14.28 8.82 14.2 8.62 14.12 8.43 14.07 8.24 14.02 8.03 13.98 7.85 13.97 7.64 13.96 7.42 13.96 7.24 13.97 7.03 13.99 6.78 14.01 6.62 14.04 6.43 14.09 6.24 14.15 6.04 14.22 5.88 14.29 5.75 14.36 5.64 14.44 5.55 14.51 5.5 14.6 5.45 14.73 5.41 14.85 5.41 14.98 5.42 15.06 5.43" style="fill: #fff;"/>
  <polygon points="5.27 10.92 5.68 10.67 5.99 10.5 6.26 10.31 6.43 10.16 6.6 10.02 6.76 9.96 6.95 9.95 7.07 9.97 7.16 10.01 7.24 10.07 7.31 10.14 7.38 10.22 7.42 10.29 7.47 10.41 7.48 10.5 7.48 10.58 7.49 10.66 7.47 10.76 7.43 10.85 7.38 10.93 7.31 11.01 7.2 11.14 7.08 11.21 6.95 11.32 6.93 11.36 6.95 11.46 7 11.57 7.06 11.69 7.25 12.01 7.41 12.28 7.67 12.69 7.9 13.05 8.28 13.59 8.53 13.98 8.77 14.28 8.93 14.5 9.09 14.67 9.26 14.88 9.42 15.06 9.67 15.32 9.88 15.53 10.11 15.75 10.3 15.94 10.58 16.15 10.89 16.37 11.3 16.62 11.69 16.82 12.07 16.96 12.45 17.06 12.73 17.12 13.16 17.14 13.55 17.13 13.98 17.11 14.25 17.1 14.38 17.07 14.55 17.02 14.76 16.98 14.94 16.91 15.24 16.76 15.5 16.63 15.73 16.46 15.95 16.27 16.18 16.08 16.36 15.9 16.58 15.66 16.73 15.46 16.86 15.26 17.03 15.01 17.18 14.8 17.39 14.44 17.48 14.28 17.59 14.07 17.7 13.87 17.83 13.59 17.94 13.32 18.03 13.1 18.13 12.87 18.22 12.64 18.3 12.44 18.38 12.29 18.43 12.18 18.49 12.06 18.53 11.97 18.57 11.9 18.57 11.84 18.56 11.83 18.49 11.81 18.39 11.77 18.3 11.74 18.19 11.69 18.08 11.61 18.04 11.57 17.98 11.5 17.95 11.46 17.91 11.38 17.88 11.28 17.87 11.2 17.87 11.12 17.86 11.03 17.86 10.95 17.89 10.88 17.92 10.8 17.96 10.74 17.99 10.69 18.05 10.61 18.12 10.54 18.2 10.48 18.28 10.45 18.35 10.43 18.45 10.43 18.57 10.43 18.67 10.46 18.75 10.49 18.9 10.54 19.04 10.61 19.18 10.68 19.34 10.75 19.53 10.84 19.69 10.91 19.84 10.99 19.98 11.08 20.12 11.17 20.22 11.25 20.28 11.35 20.32 11.41 20.34 11.5 20.35 11.55 20.36 11.61 20.37 11.67 20.37 11.72 20.35 11.81 20.32 11.89 20.29 11.97 20.26 12.04 20.22 12.09 20.18 12.15 20.12 12.19 20.04 12.25 19.97 12.28 19.88 12.32 19.82 12.34 19.74 12.34 19.62 12.33 19.52 12.3 19.42 12.25 19.35 12.19 19.31 12.16 19.27 12.14 19.24 12.15 19.22 12.2 19.2 12.29 19.18 12.38 19.16 12.47 19.15 12.56 19.13 12.67 19.1 12.8 19.07 12.91 19.04 13.03 19.01 13.15 18.98 13.26 18.95 13.38 18.9 13.54 18.85 13.72 18.77 13.98 18.71 14.14 18.64 14.28 18.57 14.47 18.5 14.65 18.44 14.8 18.36 14.97 18.28 15.16 18.17 15.34 18.03 15.59 17.9 15.83 17.74 16.07 17.52 16.36 17.33 16.59 17.13 16.78 16.99 16.93 16.77 17.12 16.54 17.31 16.28 17.47 16.1 17.57 15.78 17.75 15.52 17.85 15.22 17.98 14.94 18.07 14.65 18.16 14.33 18.25 14.01 18.3 13.59 18.35 13.22 18.36 12.78 18.35 12.37 18.32 11.93 18.25 11.5 18.13 11.12 18 10.74 17.84 10.4 17.68 10.04 17.47 9.72 17.26 9.42 17.03 9.07 16.73 8.78 16.44 8.5 16.16 8.21 15.82 8.02 15.56 7.84 15.27 7.65 14.99 7.48 14.71 7.33 14.45 7.19 14.21 7.06 13.9 6.89 13.5 6.78 13.24 6.68 12.92 6.58 12.63 6.48 12.32 6.43 12.06 6.41 11.93 6.38 11.85 6.35 11.81 6.31 11.82 6.24 11.87 6.17 11.92 6.07 11.98 5.97 12.04 5.86 12.08 5.77 12.1 5.69 12.11 5.58 12.1 5.47 12.07 5.35 11.99 5.26 11.91 5.18 11.81 5.13 11.7 5.11 11.61 5.09 11.5 5.08 11.37 5.1 11.25 5.12 11.15 5.15 11.07 5.19 11 5.22 10.95 5.27 10.92" style="fill: #fff;"/>
</svg>